<mxfile host="Electron" agent="Mozilla/5.0 (Windows NT 10.0; Win64; x64) AppleWebKit/537.36 (KHTML, like Gecko) draw.io/24.7.17 Chrome/128.0.6613.36 Electron/32.0.1 Safari/537.36" version="24.7.17">
  <diagram name="Page-1" id="DNO0gED07m0sUz7Oh5-N">
    <mxGraphModel dx="3850" dy="2135" grid="1" gridSize="10" guides="1" tooltips="1" connect="1" arrows="1" fold="1" page="1" pageScale="1" pageWidth="850" pageHeight="1100" math="0" shadow="0">
      <root>
        <mxCell id="0" />
        <mxCell id="1" parent="0" />
        <mxCell id="_sHV91O5TXKS0O4c9-gF-39" value="" style="endArrow=none;html=1;rounded=0;exitX=1;exitY=0.5;exitDx=0;exitDy=0;entryX=0;entryY=0.5;entryDx=0;entryDy=0;" parent="1" source="_sHV91O5TXKS0O4c9-gF-31" edge="1">
          <mxGeometry relative="1" as="geometry">
            <mxPoint x="510.37" y="300" as="sourcePoint" />
            <mxPoint x="760.37" y="290" as="targetPoint" />
          </mxGeometry>
        </mxCell>
        <mxCell id="_sHV91O5TXKS0O4c9-gF-41" value="N" style="resizable=0;html=1;whiteSpace=wrap;align=right;verticalAlign=bottom;" parent="_sHV91O5TXKS0O4c9-gF-39" connectable="0" vertex="1">
          <mxGeometry x="1" relative="1" as="geometry" />
        </mxCell>
        <mxCell id="_sHV91O5TXKS0O4c9-gF-1" value="Book" style="whiteSpace=wrap;html=1;align=center;" parent="1" vertex="1">
          <mxGeometry x="480.37" y="270" width="100" height="40" as="geometry" />
        </mxCell>
        <mxCell id="_sHV91O5TXKS0O4c9-gF-4" value="Author" style="whiteSpace=wrap;html=1;align=center;" parent="1" vertex="1">
          <mxGeometry x="730" y="270" width="100" height="40" as="geometry" />
        </mxCell>
        <mxCell id="_sHV91O5TXKS0O4c9-gF-7" value="Reservation" style="whiteSpace=wrap;html=1;align=center;" parent="1" vertex="1">
          <mxGeometry x="330" y="40" width="100" height="40" as="geometry" />
        </mxCell>
        <mxCell id="_sHV91O5TXKS0O4c9-gF-8" value="Member" style="whiteSpace=wrap;html=1;align=center;" parent="1" vertex="1">
          <mxGeometry x="-280" y="27.5" width="110" height="40" as="geometry" />
        </mxCell>
        <mxCell id="_sHV91O5TXKS0O4c9-gF-9" value="Loan" style="whiteSpace=wrap;html=1;align=center;" parent="1" vertex="1">
          <mxGeometry x="-110" y="350" width="100" height="40" as="geometry" />
        </mxCell>
        <mxCell id="_sHV91O5TXKS0O4c9-gF-11" value="Fine-Payment" style="whiteSpace=wrap;html=1;align=center;" parent="1" vertex="1">
          <mxGeometry x="-49.63" y="-220" width="100" height="40" as="geometry" />
        </mxCell>
        <mxCell id="_sHV91O5TXKS0O4c9-gF-12" value="Staff" style="whiteSpace=wrap;html=1;align=center;" parent="1" vertex="1">
          <mxGeometry x="-790" y="437.5" width="110" height="40" as="geometry" />
        </mxCell>
        <mxCell id="_sHV91O5TXKS0O4c9-gF-23" style="edgeStyle=orthogonalEdgeStyle;rounded=0;orthogonalLoop=1;jettySize=auto;html=1;exitX=0.5;exitY=1;exitDx=0;exitDy=0;" parent="1" source="_sHV91O5TXKS0O4c9-gF-1" target="_sHV91O5TXKS0O4c9-gF-1" edge="1">
          <mxGeometry relative="1" as="geometry" />
        </mxCell>
        <mxCell id="_sHV91O5TXKS0O4c9-gF-25" value="reserved_for" style="shape=rhombus;perimeter=rhombusPerimeter;whiteSpace=wrap;html=1;align=center;" parent="1" vertex="1">
          <mxGeometry x="330" y="150" width="95" height="60" as="geometry" />
        </mxCell>
        <mxCell id="_sHV91O5TXKS0O4c9-gF-29" value="managed" style="shape=rhombus;perimeter=rhombusPerimeter;whiteSpace=wrap;html=1;align=center;" parent="1" vertex="1">
          <mxGeometry x="-410" y="429.78" width="80" height="60" as="geometry" />
        </mxCell>
        <mxCell id="_sHV91O5TXKS0O4c9-gF-32" value="makes" style="shape=rhombus;perimeter=rhombusPerimeter;whiteSpace=wrap;html=1;align=center;" parent="1" vertex="1">
          <mxGeometry x="40" y="30" width="80" height="60" as="geometry" />
        </mxCell>
        <mxCell id="_sHV91O5TXKS0O4c9-gF-33" value="pay" style="shape=rhombus;perimeter=rhombusPerimeter;whiteSpace=wrap;html=1;align=center;" parent="1" vertex="1">
          <mxGeometry x="-40" y="-120" width="80" height="60" as="geometry" />
        </mxCell>
        <mxCell id="_sHV91O5TXKS0O4c9-gF-34" value="assist" style="shape=rhombus;perimeter=rhombusPerimeter;whiteSpace=wrap;html=1;align=center;" parent="1" vertex="1">
          <mxGeometry x="-740" y="67.5" width="70" height="55" as="geometry" />
        </mxCell>
        <mxCell id="_sHV91O5TXKS0O4c9-gF-42" value="" style="endArrow=none;html=1;rounded=0;exitX=1;exitY=0.5;exitDx=0;exitDy=0;entryX=0;entryY=0.5;entryDx=0;entryDy=0;" parent="1" source="_sHV91O5TXKS0O4c9-gF-1" target="_sHV91O5TXKS0O4c9-gF-31" edge="1">
          <mxGeometry relative="1" as="geometry">
            <mxPoint x="480.37" y="290" as="sourcePoint" />
            <mxPoint x="700.37" y="290" as="targetPoint" />
          </mxGeometry>
        </mxCell>
        <mxCell id="_sHV91O5TXKS0O4c9-gF-31" value="write" style="shape=rhombus;perimeter=rhombusPerimeter;whiteSpace=wrap;html=1;align=center;" parent="1" vertex="1">
          <mxGeometry x="635" y="260" width="60" height="60" as="geometry" />
        </mxCell>
        <mxCell id="_sHV91O5TXKS0O4c9-gF-53" value="" style="endArrow=none;html=1;rounded=0;entryX=0.5;entryY=1;entryDx=0;entryDy=0;" parent="1" target="_sHV91O5TXKS0O4c9-gF-20" edge="1">
          <mxGeometry relative="1" as="geometry">
            <mxPoint x="560" y="504" as="sourcePoint" />
            <mxPoint x="640" y="160" as="targetPoint" />
          </mxGeometry>
        </mxCell>
        <mxCell id="_sHV91O5TXKS0O4c9-gF-20" value="belongs" style="shape=rhombus;perimeter=rhombusPerimeter;whiteSpace=wrap;html=1;align=center;" parent="1" vertex="1">
          <mxGeometry x="530" y="405" width="60" height="50" as="geometry" />
        </mxCell>
        <mxCell id="_sHV91O5TXKS0O4c9-gF-57" value="imposed_on" style="shape=rhombus;double=1;perimeter=rhombusPerimeter;whiteSpace=wrap;html=1;align=center;" parent="1" vertex="1">
          <mxGeometry x="-140" y="190" width="120" height="60" as="geometry" />
        </mxCell>
        <mxCell id="_sHV91O5TXKS0O4c9-gF-58" value="Fine" style="shape=ext;margin=3;double=1;whiteSpace=wrap;html=1;align=center;" parent="1" vertex="1">
          <mxGeometry x="20" y="170" width="100" height="40" as="geometry" />
        </mxCell>
        <mxCell id="_sHV91O5TXKS0O4c9-gF-64" value="" style="endArrow=none;html=1;rounded=0;entryX=0.5;entryY=0;entryDx=0;entryDy=0;exitX=0.45;exitY=1;exitDx=0;exitDy=0;exitPerimeter=0;edgeStyle=orthogonalEdgeStyle;" parent="1" source="_sHV91O5TXKS0O4c9-gF-1" target="_sHV91O5TXKS0O4c9-gF-22" edge="1">
          <mxGeometry relative="1" as="geometry">
            <mxPoint x="440" y="310" as="sourcePoint" />
            <mxPoint x="400" y="460" as="targetPoint" />
            <Array as="points">
              <mxPoint x="525" y="380" />
              <mxPoint x="415" y="380" />
            </Array>
          </mxGeometry>
        </mxCell>
        <mxCell id="_sHV91O5TXKS0O4c9-gF-22" value="have" style="shape=rhombus;perimeter=rhombusPerimeter;whiteSpace=wrap;html=1;align=center;" parent="1" vertex="1">
          <mxGeometry x="380" y="355" width="70" height="50" as="geometry" />
        </mxCell>
        <mxCell id="_sHV91O5TXKS0O4c9-gF-87" value="" style="endArrow=none;html=1;rounded=0;exitX=0.5;exitY=1;exitDx=0;exitDy=0;edgeStyle=orthogonalEdgeStyle;entryX=0;entryY=0.5;entryDx=0;entryDy=0;" parent="1" source="_sHV91O5TXKS0O4c9-gF-25" target="_sHV91O5TXKS0O4c9-gF-1" edge="1">
          <mxGeometry relative="1" as="geometry">
            <mxPoint x="430" y="320" as="sourcePoint" />
            <mxPoint x="470" y="290" as="targetPoint" />
          </mxGeometry>
        </mxCell>
        <mxCell id="_sHV91O5TXKS0O4c9-gF-91" value="" style="endArrow=none;html=1;rounded=0;exitX=1;exitY=0.813;exitDx=0;exitDy=0;entryX=0;entryY=0.5;entryDx=0;entryDy=0;exitPerimeter=0;" parent="1" source="_sHV91O5TXKS0O4c9-gF-8" target="_sHV91O5TXKS0O4c9-gF-32" edge="1">
          <mxGeometry relative="1" as="geometry">
            <mxPoint x="170" y="400" as="sourcePoint" />
            <mxPoint x="330" y="400" as="targetPoint" />
          </mxGeometry>
        </mxCell>
        <mxCell id="_sHV91O5TXKS0O4c9-gF-109" value="" style="endArrow=none;html=1;rounded=0;entryX=1;entryY=0.5;entryDx=0;entryDy=0;exitX=0;exitY=0.5;exitDx=0;exitDy=0;" parent="1" source="_sHV91O5TXKS0O4c9-gF-29" target="_sHV91O5TXKS0O4c9-gF-12" edge="1">
          <mxGeometry relative="1" as="geometry">
            <mxPoint x="200" y="480" as="sourcePoint" />
            <mxPoint x="190" y="578" as="targetPoint" />
          </mxGeometry>
        </mxCell>
        <mxCell id="_sHV91O5TXKS0O4c9-gF-110" value="1" style="resizable=0;html=1;whiteSpace=wrap;align=right;verticalAlign=bottom;" parent="_sHV91O5TXKS0O4c9-gF-109" connectable="0" vertex="1">
          <mxGeometry x="1" relative="1" as="geometry">
            <mxPoint x="16" y="20" as="offset" />
          </mxGeometry>
        </mxCell>
        <mxCell id="_sHV91O5TXKS0O4c9-gF-122" value="" style="endArrow=none;html=1;rounded=0;exitX=0;exitY=0.5;exitDx=0;exitDy=0;entryX=0.5;entryY=0;entryDx=0;entryDy=0;" parent="1" source="_sHV91O5TXKS0O4c9-gF-34" target="_sHV91O5TXKS0O4c9-gF-12" edge="1">
          <mxGeometry relative="1" as="geometry">
            <mxPoint x="-420" y="516.79" as="sourcePoint" />
            <mxPoint x="-260" y="516.79" as="targetPoint" />
          </mxGeometry>
        </mxCell>
        <mxCell id="_sHV91O5TXKS0O4c9-gF-123" value="M" style="resizable=0;html=1;whiteSpace=wrap;align=right;verticalAlign=bottom;" parent="_sHV91O5TXKS0O4c9-gF-122" connectable="0" vertex="1">
          <mxGeometry x="1" relative="1" as="geometry">
            <mxPoint x="1455" y="-147" as="offset" />
          </mxGeometry>
        </mxCell>
        <mxCell id="_sHV91O5TXKS0O4c9-gF-5" value="Category" style="whiteSpace=wrap;html=1;align=center;direction=south;" parent="1" vertex="1">
          <mxGeometry x="520" y="500" width="120" height="50" as="geometry" />
        </mxCell>
        <mxCell id="_sHV91O5TXKS0O4c9-gF-136" value="" style="endArrow=none;html=1;rounded=0;exitX=0.5;exitY=1;exitDx=0;exitDy=0;edgeStyle=orthogonalEdgeStyle;entryX=1;entryY=0.25;entryDx=0;entryDy=0;" parent="1" source="_sHV91O5TXKS0O4c9-gF-33" target="_sHV91O5TXKS0O4c9-gF-8" edge="1">
          <mxGeometry relative="1" as="geometry">
            <mxPoint x="-170" y="58" as="sourcePoint" />
            <mxPoint x="31" y="60" as="targetPoint" />
            <Array as="points">
              <mxPoint y="-50" />
              <mxPoint y="30" />
              <mxPoint x="-180" y="30" />
            </Array>
          </mxGeometry>
        </mxCell>
        <mxCell id="wtEYaw61Segg5cu08wRg-1" value="Book_Id" style="ellipse;whiteSpace=wrap;html=1;align=center;fontStyle=4;" parent="1" vertex="1">
          <mxGeometry x="410" y="120" width="89.63" height="50" as="geometry" />
        </mxCell>
        <mxCell id="wtEYaw61Segg5cu08wRg-3" value="Title" style="ellipse;whiteSpace=wrap;html=1;align=center;" parent="1" vertex="1">
          <mxGeometry x="565" y="170" width="75" height="50" as="geometry" />
        </mxCell>
        <mxCell id="wtEYaw61Segg5cu08wRg-4" value="Publication_Date" style="ellipse;whiteSpace=wrap;html=1;align=center;" parent="1" vertex="1">
          <mxGeometry x="520" y="110" width="100" height="50" as="geometry" />
        </mxCell>
        <mxCell id="wtEYaw61Segg5cu08wRg-8" value="" style="endArrow=none;html=1;rounded=0;entryX=0.5;entryY=1;entryDx=0;entryDy=0;exitX=0;exitY=0;exitDx=0;exitDy=0;" parent="1" source="_sHV91O5TXKS0O4c9-gF-1" target="wtEYaw61Segg5cu08wRg-1" edge="1">
          <mxGeometry relative="1" as="geometry">
            <mxPoint x="110" y="90" as="sourcePoint" />
            <mxPoint x="270" y="90" as="targetPoint" />
          </mxGeometry>
        </mxCell>
        <mxCell id="wtEYaw61Segg5cu08wRg-9" value="" style="endArrow=none;html=1;rounded=0;entryX=0.383;entryY=0.967;entryDx=0;entryDy=0;exitX=0.5;exitY=0;exitDx=0;exitDy=0;entryPerimeter=0;" parent="1" source="_sHV91O5TXKS0O4c9-gF-1" target="wtEYaw61Segg5cu08wRg-4" edge="1">
          <mxGeometry relative="1" as="geometry">
            <mxPoint x="490" y="280" as="sourcePoint" />
            <mxPoint x="485" y="220" as="targetPoint" />
          </mxGeometry>
        </mxCell>
        <mxCell id="wtEYaw61Segg5cu08wRg-10" value="" style="endArrow=none;html=1;rounded=0;entryX=0.5;entryY=1;entryDx=0;entryDy=0;exitX=0.75;exitY=0;exitDx=0;exitDy=0;" parent="1" source="_sHV91O5TXKS0O4c9-gF-1" target="wtEYaw61Segg5cu08wRg-3" edge="1">
          <mxGeometry relative="1" as="geometry">
            <mxPoint x="500" y="290" as="sourcePoint" />
            <mxPoint x="495" y="230" as="targetPoint" />
          </mxGeometry>
        </mxCell>
        <mxCell id="wtEYaw61Segg5cu08wRg-14" value="Author_Id" style="ellipse;whiteSpace=wrap;html=1;align=center;fontStyle=4;" parent="1" vertex="1">
          <mxGeometry x="740" y="397.5" width="69.63" height="40" as="geometry" />
        </mxCell>
        <mxCell id="wtEYaw61Segg5cu08wRg-15" value="Name" style="ellipse;whiteSpace=wrap;html=1;align=center;direction=south;" parent="1" vertex="1">
          <mxGeometry x="895" y="207.5" width="70" height="52.5" as="geometry" />
        </mxCell>
        <mxCell id="wtEYaw61Segg5cu08wRg-17" value="First_Name" style="ellipse;whiteSpace=wrap;html=1;align=center;" parent="1" vertex="1">
          <mxGeometry x="1010" y="115" width="80" height="45" as="geometry" />
        </mxCell>
        <mxCell id="wtEYaw61Segg5cu08wRg-18" value="Last_Name" style="ellipse;whiteSpace=wrap;html=1;align=center;" parent="1" vertex="1">
          <mxGeometry x="890" y="100" width="80" height="50" as="geometry" />
        </mxCell>
        <mxCell id="wtEYaw61Segg5cu08wRg-19" value="" style="endArrow=none;html=1;rounded=0;entryX=0.5;entryY=1;entryDx=0;entryDy=0;exitX=0.5;exitY=0;exitDx=0;exitDy=0;" parent="1" source="wtEYaw61Segg5cu08wRg-14" target="_sHV91O5TXKS0O4c9-gF-4" edge="1">
          <mxGeometry relative="1" as="geometry">
            <mxPoint x="590" y="290" as="sourcePoint" />
            <mxPoint x="700" y="210" as="targetPoint" />
            <Array as="points" />
          </mxGeometry>
        </mxCell>
        <mxCell id="wtEYaw61Segg5cu08wRg-23" value="" style="endArrow=none;html=1;rounded=0;entryX=1;entryY=0;entryDx=0;entryDy=0;exitX=0.5;exitY=1;exitDx=0;exitDy=0;" parent="1" source="wtEYaw61Segg5cu08wRg-15" target="_sHV91O5TXKS0O4c9-gF-4" edge="1">
          <mxGeometry relative="1" as="geometry">
            <mxPoint x="920" y="330" as="sourcePoint" />
            <mxPoint x="1015" y="260" as="targetPoint" />
            <Array as="points" />
          </mxGeometry>
        </mxCell>
        <mxCell id="wtEYaw61Segg5cu08wRg-24" value="" style="endArrow=none;html=1;rounded=0;entryX=0;entryY=0;entryDx=0;entryDy=0;" parent="1" target="wtEYaw61Segg5cu08wRg-15" edge="1">
          <mxGeometry relative="1" as="geometry">
            <mxPoint x="1020" y="160" as="sourcePoint" />
            <mxPoint x="810" y="340" as="targetPoint" />
            <Array as="points" />
          </mxGeometry>
        </mxCell>
        <mxCell id="wtEYaw61Segg5cu08wRg-25" value="" style="endArrow=none;html=1;rounded=0;exitX=0;exitY=0.5;exitDx=0;exitDy=0;entryX=0.646;entryY=1.033;entryDx=0;entryDy=0;entryPerimeter=0;" parent="1" source="wtEYaw61Segg5cu08wRg-15" target="wtEYaw61Segg5cu08wRg-18" edge="1">
          <mxGeometry relative="1" as="geometry">
            <mxPoint x="850" y="507.5" as="sourcePoint" />
            <mxPoint x="930" y="100" as="targetPoint" />
            <Array as="points" />
          </mxGeometry>
        </mxCell>
        <mxCell id="wtEYaw61Segg5cu08wRg-32" value="Member_Id" style="ellipse;whiteSpace=wrap;html=1;align=center;fontStyle=4;" parent="1" vertex="1">
          <mxGeometry x="-580" y="-240" width="89.63" height="50" as="geometry" />
        </mxCell>
        <mxCell id="wtEYaw61Segg5cu08wRg-33" value="Name" style="ellipse;whiteSpace=wrap;html=1;align=center;direction=south;" parent="1" vertex="1">
          <mxGeometry x="-452" y="-200" width="70" height="52.5" as="geometry" />
        </mxCell>
        <mxCell id="wtEYaw61Segg5cu08wRg-34" value="First_Name" style="ellipse;whiteSpace=wrap;html=1;align=center;" parent="1" vertex="1">
          <mxGeometry x="-442" y="-305" width="80" height="45" as="geometry" />
        </mxCell>
        <mxCell id="wtEYaw61Segg5cu08wRg-35" value="Last_Name" style="ellipse;whiteSpace=wrap;html=1;align=center;" parent="1" vertex="1">
          <mxGeometry x="-522" y="-290" width="80" height="50" as="geometry" />
        </mxCell>
        <mxCell id="wtEYaw61Segg5cu08wRg-36" value="" style="endArrow=none;html=1;rounded=0;entryX=0;entryY=0;entryDx=0;entryDy=0;exitX=0.5;exitY=1;exitDx=0;exitDy=0;" parent="1" source="wtEYaw61Segg5cu08wRg-34" target="wtEYaw61Segg5cu08wRg-33" edge="1">
          <mxGeometry relative="1" as="geometry">
            <mxPoint x="-374.3199999999997" y="-239.68499999999972" as="sourcePoint" />
            <mxPoint x="-542" y="-80" as="targetPoint" />
            <Array as="points" />
          </mxGeometry>
        </mxCell>
        <mxCell id="wtEYaw61Segg5cu08wRg-37" value="" style="endArrow=none;html=1;rounded=0;exitX=0;exitY=0.5;exitDx=0;exitDy=0;entryX=0.646;entryY=1.033;entryDx=0;entryDy=0;entryPerimeter=0;" parent="1" source="wtEYaw61Segg5cu08wRg-33" target="wtEYaw61Segg5cu08wRg-35" edge="1">
          <mxGeometry relative="1" as="geometry">
            <mxPoint x="-502" y="87.5" as="sourcePoint" />
            <mxPoint x="-422" y="-320" as="targetPoint" />
            <Array as="points" />
          </mxGeometry>
        </mxCell>
        <mxCell id="wtEYaw61Segg5cu08wRg-39" value="Age" style="ellipse;whiteSpace=wrap;html=1;align=center;dashed=1;" parent="1" vertex="1">
          <mxGeometry x="-350" y="-320" width="80" height="60" as="geometry" />
        </mxCell>
        <mxCell id="wtEYaw61Segg5cu08wRg-40" value="DOB" style="ellipse;whiteSpace=wrap;html=1;align=center;direction=south;" parent="1" vertex="1">
          <mxGeometry x="-362" y="-212.5" width="70" height="52.5" as="geometry" />
        </mxCell>
        <mxCell id="wtEYaw61Segg5cu08wRg-43" value="Reg_date" style="ellipse;whiteSpace=wrap;html=1;align=center;direction=south;" parent="1" vertex="1">
          <mxGeometry x="-277" y="-212.5" width="70" height="52.5" as="geometry" />
        </mxCell>
        <mxCell id="wtEYaw61Segg5cu08wRg-44" value="Active_Status" style="ellipse;whiteSpace=wrap;html=1;align=center;direction=south;" parent="1" vertex="1">
          <mxGeometry x="-230" y="-147.5" width="90" height="52.5" as="geometry" />
        </mxCell>
        <mxCell id="wtEYaw61Segg5cu08wRg-45" value="Email" style="ellipse;shape=doubleEllipse;margin=3;whiteSpace=wrap;html=1;align=center;" parent="1" vertex="1">
          <mxGeometry x="-662" y="-90" width="100" height="40" as="geometry" />
        </mxCell>
        <mxCell id="wtEYaw61Segg5cu08wRg-46" value="Phone_Num" style="ellipse;whiteSpace=wrap;html=1;align=center;direction=south;" parent="1" vertex="1">
          <mxGeometry x="-660" y="-25" width="88" height="52.5" as="geometry" />
        </mxCell>
        <mxCell id="wtEYaw61Segg5cu08wRg-47" value="" style="endArrow=none;html=1;rounded=0;entryX=0.75;entryY=0;entryDx=0;entryDy=0;exitX=1;exitY=0.5;exitDx=0;exitDy=0;" parent="1" source="wtEYaw61Segg5cu08wRg-44" target="_sHV91O5TXKS0O4c9-gF-8" edge="1">
          <mxGeometry relative="1" as="geometry">
            <mxPoint x="-210" y="-40" as="sourcePoint" />
            <mxPoint x="-240" y="20" as="targetPoint" />
          </mxGeometry>
        </mxCell>
        <mxCell id="wtEYaw61Segg5cu08wRg-50" value="" style="endArrow=none;html=1;rounded=0;exitX=1;exitY=0.5;exitDx=0;exitDy=0;entryX=0.5;entryY=0;entryDx=0;entryDy=0;" parent="1" source="wtEYaw61Segg5cu08wRg-43" target="_sHV91O5TXKS0O4c9-gF-8" edge="1">
          <mxGeometry relative="1" as="geometry">
            <mxPoint x="10" y="-290" as="sourcePoint" />
            <mxPoint x="-240" y="10" as="targetPoint" />
          </mxGeometry>
        </mxCell>
        <mxCell id="wtEYaw61Segg5cu08wRg-51" value="" style="endArrow=none;html=1;rounded=0;exitX=0.952;exitY=0.4;exitDx=0;exitDy=0;exitPerimeter=0;entryX=0;entryY=0;entryDx=0;entryDy=0;" parent="1" source="wtEYaw61Segg5cu08wRg-33" target="_sHV91O5TXKS0O4c9-gF-8" edge="1">
          <mxGeometry width="50" height="50" relative="1" as="geometry">
            <mxPoint x="-400" y="-150" as="sourcePoint" />
            <mxPoint x="-260" y="20" as="targetPoint" />
          </mxGeometry>
        </mxCell>
        <mxCell id="wtEYaw61Segg5cu08wRg-52" value="" style="endArrow=none;html=1;rounded=0;entryX=1;entryY=0.5;entryDx=0;entryDy=0;exitX=0.25;exitY=0;exitDx=0;exitDy=0;" parent="1" source="_sHV91O5TXKS0O4c9-gF-8" target="wtEYaw61Segg5cu08wRg-40" edge="1">
          <mxGeometry width="50" height="50" relative="1" as="geometry">
            <mxPoint x="160" y="130" as="sourcePoint" />
            <mxPoint x="210" y="80" as="targetPoint" />
          </mxGeometry>
        </mxCell>
        <mxCell id="wtEYaw61Segg5cu08wRg-53" value="" style="endArrow=none;html=1;rounded=0;exitX=1;exitY=1;exitDx=0;exitDy=0;entryX=0;entryY=0.25;entryDx=0;entryDy=0;" parent="1" source="wtEYaw61Segg5cu08wRg-32" target="_sHV91O5TXKS0O4c9-gF-8" edge="1">
          <mxGeometry relative="1" as="geometry">
            <mxPoint x="-370" y="-105" as="sourcePoint" />
            <mxPoint x="-370" y="75" as="targetPoint" />
            <Array as="points">
              <mxPoint x="-310" y="20" />
            </Array>
          </mxGeometry>
        </mxCell>
        <mxCell id="wtEYaw61Segg5cu08wRg-54" value="" style="endArrow=none;html=1;rounded=0;exitX=1;exitY=0.5;exitDx=0;exitDy=0;entryX=0;entryY=1;entryDx=0;entryDy=0;edgeStyle=orthogonalEdgeStyle;" parent="1" source="_sHV91O5TXKS0O4c9-gF-34" target="_sHV91O5TXKS0O4c9-gF-8" edge="1">
          <mxGeometry relative="1" as="geometry">
            <mxPoint x="-550" y="58" as="sourcePoint" />
            <mxPoint x="-555" y="448" as="targetPoint" />
          </mxGeometry>
        </mxCell>
        <mxCell id="wtEYaw61Segg5cu08wRg-67" value="" style="endArrow=none;html=1;rounded=0;exitX=1;exitY=0.5;exitDx=0;exitDy=0;entryX=0;entryY=0.5;entryDx=0;entryDy=0;" parent="1" source="wtEYaw61Segg5cu08wRg-45" target="_sHV91O5TXKS0O4c9-gF-8" edge="1">
          <mxGeometry width="50" height="50" relative="1" as="geometry">
            <mxPoint x="-540.37" y="27.5" as="sourcePoint" />
            <mxPoint x="-490.37" y="-22.5" as="targetPoint" />
          </mxGeometry>
        </mxCell>
        <mxCell id="wtEYaw61Segg5cu08wRg-68" value="" style="endArrow=none;html=1;rounded=0;entryX=0;entryY=0.75;entryDx=0;entryDy=0;exitX=1;exitY=0;exitDx=0;exitDy=0;" parent="1" source="wtEYaw61Segg5cu08wRg-46" target="_sHV91O5TXKS0O4c9-gF-8" edge="1">
          <mxGeometry relative="1" as="geometry">
            <mxPoint x="-500" as="sourcePoint" />
            <mxPoint x="-490" y="68" as="targetPoint" />
            <Array as="points" />
          </mxGeometry>
        </mxCell>
        <mxCell id="wtEYaw61Segg5cu08wRg-70" value="Loan_Date" style="ellipse;whiteSpace=wrap;html=1;align=center;direction=south;" parent="1" vertex="1">
          <mxGeometry x="-90" y="457.5" width="70" height="52.5" as="geometry" />
        </mxCell>
        <mxCell id="wtEYaw61Segg5cu08wRg-71" value="Due_Date" style="ellipse;whiteSpace=wrap;html=1;align=center;direction=south;" parent="1" vertex="1">
          <mxGeometry x="-10" y="460" width="70" height="52.5" as="geometry" />
        </mxCell>
        <mxCell id="wtEYaw61Segg5cu08wRg-72" value="rReturn_Date" style="ellipse;whiteSpace=wrap;html=1;align=center;direction=south;" parent="1" vertex="1">
          <mxGeometry x="70" y="460" width="70" height="52.5" as="geometry" />
        </mxCell>
        <mxCell id="wtEYaw61Segg5cu08wRg-73" value="Status" style="ellipse;whiteSpace=wrap;html=1;align=center;direction=south;" parent="1" vertex="1">
          <mxGeometry x="150" y="450" width="70" height="52.5" as="geometry" />
        </mxCell>
        <mxCell id="wtEYaw61Segg5cu08wRg-74" value="Loan_Id" style="ellipse;whiteSpace=wrap;html=1;align=center;fontStyle=4;" parent="1" vertex="1">
          <mxGeometry x="50.370000000000005" y="320" width="69.63" height="40" as="geometry" />
        </mxCell>
        <mxCell id="wtEYaw61Segg5cu08wRg-75" value="" style="endArrow=none;html=1;rounded=0;exitX=0.393;exitY=1.083;exitDx=0;exitDy=0;entryX=0.063;entryY=0.657;entryDx=0;entryDy=0;exitPerimeter=0;entryPerimeter=0;" parent="1" source="_sHV91O5TXKS0O4c9-gF-9" target="wtEYaw61Segg5cu08wRg-70" edge="1">
          <mxGeometry width="50" height="50" relative="1" as="geometry">
            <mxPoint x="-442" y="477.25" as="sourcePoint" />
            <mxPoint x="-160" y="595.25" as="targetPoint" />
          </mxGeometry>
        </mxCell>
        <mxCell id="wtEYaw61Segg5cu08wRg-76" value="" style="endArrow=none;html=1;rounded=0;exitX=0;exitY=1;exitDx=0;exitDy=0;entryX=0.5;entryY=1;entryDx=0;entryDy=0;" parent="1" source="wtEYaw61Segg5cu08wRg-71" target="_sHV91O5TXKS0O4c9-gF-9" edge="1">
          <mxGeometry width="50" height="50" relative="1" as="geometry">
            <mxPoint x="-482" y="500" as="sourcePoint" />
            <mxPoint x="-200" y="618" as="targetPoint" />
          </mxGeometry>
        </mxCell>
        <mxCell id="wtEYaw61Segg5cu08wRg-77" value="" style="endArrow=none;html=1;rounded=0;exitX=0.75;exitY=1;exitDx=0;exitDy=0;entryX=0;entryY=1;entryDx=0;entryDy=0;" parent="1" source="_sHV91O5TXKS0O4c9-gF-9" target="wtEYaw61Segg5cu08wRg-72" edge="1">
          <mxGeometry width="50" height="50" relative="1" as="geometry">
            <mxPoint x="50" y="466" as="sourcePoint" />
            <mxPoint x="332" y="584" as="targetPoint" />
          </mxGeometry>
        </mxCell>
        <mxCell id="wtEYaw61Segg5cu08wRg-78" value="" style="endArrow=none;html=1;rounded=0;exitX=1;exitY=1;exitDx=0;exitDy=0;entryX=0;entryY=1;entryDx=0;entryDy=0;" parent="1" source="_sHV91O5TXKS0O4c9-gF-9" target="wtEYaw61Segg5cu08wRg-73" edge="1">
          <mxGeometry width="50" height="50" relative="1" as="geometry">
            <mxPoint x="70" y="437.5" as="sourcePoint" />
            <mxPoint x="352" y="555.5" as="targetPoint" />
          </mxGeometry>
        </mxCell>
        <mxCell id="wtEYaw61Segg5cu08wRg-79" value="" style="endArrow=none;html=1;rounded=0;exitX=1;exitY=0.25;exitDx=0;exitDy=0;entryX=0;entryY=0.5;entryDx=0;entryDy=0;" parent="1" source="_sHV91O5TXKS0O4c9-gF-9" target="wtEYaw61Segg5cu08wRg-74" edge="1">
          <mxGeometry width="50" height="50" relative="1" as="geometry">
            <mxPoint x="70" y="397.5" as="sourcePoint" />
            <mxPoint x="352" y="515.5" as="targetPoint" />
          </mxGeometry>
        </mxCell>
        <mxCell id="wtEYaw61Segg5cu08wRg-82" value="Fine_Id" style="ellipse;whiteSpace=wrap;html=1;align=center;" parent="1" vertex="1">
          <mxGeometry x="170" y="120" width="100" height="40" as="geometry" />
        </mxCell>
        <mxCell id="wtEYaw61Segg5cu08wRg-83" value="Fine_Date" style="ellipse;whiteSpace=wrap;html=1;align=center;direction=south;" parent="1" vertex="1">
          <mxGeometry x="100" y="90" width="70" height="52.5" as="geometry" />
        </mxCell>
        <mxCell id="wtEYaw61Segg5cu08wRg-85" value="" style="endArrow=none;html=1;rounded=0;exitX=0.75;exitY=0;exitDx=0;exitDy=0;entryX=1;entryY=1;entryDx=0;entryDy=0;" parent="1" source="_sHV91O5TXKS0O4c9-gF-58" target="wtEYaw61Segg5cu08wRg-83" edge="1">
          <mxGeometry width="50" height="50" relative="1" as="geometry">
            <mxPoint x="10" y="155" as="sourcePoint" />
            <mxPoint x="70" y="135" as="targetPoint" />
          </mxGeometry>
        </mxCell>
        <mxCell id="wtEYaw61Segg5cu08wRg-86" value="Payment_Status" style="ellipse;whiteSpace=wrap;html=1;align=center;direction=south;" parent="1" vertex="1">
          <mxGeometry x="-70" y="80" width="103" height="50" as="geometry" />
        </mxCell>
        <mxCell id="wtEYaw61Segg5cu08wRg-87" value="" style="endArrow=none;html=1;rounded=0;exitX=0.5;exitY=0;exitDx=0;exitDy=0;entryX=0.824;entryY=0.108;entryDx=0;entryDy=0;entryPerimeter=0;" parent="1" source="_sHV91O5TXKS0O4c9-gF-58" target="wtEYaw61Segg5cu08wRg-86" edge="1">
          <mxGeometry width="50" height="50" relative="1" as="geometry">
            <mxPoint x="60" y="156" as="sourcePoint" />
            <mxPoint x="75" y="120" as="targetPoint" />
          </mxGeometry>
        </mxCell>
        <mxCell id="wtEYaw61Segg5cu08wRg-88" value="Fine_Amount" style="ellipse;whiteSpace=wrap;html=1;align=center;" parent="1" vertex="1">
          <mxGeometry x="-160" y="125" width="100" height="40" as="geometry" />
        </mxCell>
        <mxCell id="wtEYaw61Segg5cu08wRg-90" value="" style="endArrow=none;html=1;rounded=0;exitX=0;exitY=0;exitDx=0;exitDy=0;entryX=1;entryY=0.5;entryDx=0;entryDy=0;" parent="1" source="_sHV91O5TXKS0O4c9-gF-58" target="wtEYaw61Segg5cu08wRg-88" edge="1">
          <mxGeometry width="50" height="50" relative="1" as="geometry">
            <mxPoint x="-40" y="188" as="sourcePoint" />
            <mxPoint x="-25" y="152" as="targetPoint" />
          </mxGeometry>
        </mxCell>
        <mxCell id="wtEYaw61Segg5cu08wRg-91" value="Name" style="ellipse;whiteSpace=wrap;html=1;align=center;direction=south;" parent="1" vertex="1">
          <mxGeometry x="-670" y="502.5" width="70" height="52.5" as="geometry" />
        </mxCell>
        <mxCell id="wtEYaw61Segg5cu08wRg-92" value="First_Name" style="ellipse;whiteSpace=wrap;html=1;align=center;" parent="1" vertex="1">
          <mxGeometry x="-580" y="560" width="80" height="45" as="geometry" />
        </mxCell>
        <mxCell id="wtEYaw61Segg5cu08wRg-93" value="Last_Name" style="ellipse;whiteSpace=wrap;html=1;align=center;" parent="1" vertex="1">
          <mxGeometry x="-675" y="573.5" width="80" height="50" as="geometry" />
        </mxCell>
        <mxCell id="wtEYaw61Segg5cu08wRg-94" value="" style="endArrow=none;html=1;rounded=0;entryX=1;entryY=0;entryDx=0;entryDy=0;exitX=0.35;exitY=0.015;exitDx=0;exitDy=0;exitPerimeter=0;" parent="1" source="wtEYaw61Segg5cu08wRg-92" target="wtEYaw61Segg5cu08wRg-91" edge="1">
          <mxGeometry relative="1" as="geometry">
            <mxPoint x="-452.3199999999997" y="733.8150000000003" as="sourcePoint" />
            <mxPoint x="-620" y="893.5" as="targetPoint" />
            <Array as="points" />
          </mxGeometry>
        </mxCell>
        <mxCell id="wtEYaw61Segg5cu08wRg-95" value="" style="endArrow=none;html=1;rounded=0;exitX=1;exitY=0.5;exitDx=0;exitDy=0;entryX=0.5;entryY=0;entryDx=0;entryDy=0;" parent="1" source="wtEYaw61Segg5cu08wRg-91" target="wtEYaw61Segg5cu08wRg-93" edge="1">
          <mxGeometry relative="1" as="geometry">
            <mxPoint x="-580" y="1061" as="sourcePoint" />
            <mxPoint x="-500" y="653.5" as="targetPoint" />
            <Array as="points" />
          </mxGeometry>
        </mxCell>
        <mxCell id="wtEYaw61Segg5cu08wRg-96" value="Phone_Num" style="ellipse;whiteSpace=wrap;html=1;align=center;direction=south;" parent="1" vertex="1">
          <mxGeometry x="-775" y="526" width="80" height="47.5" as="geometry" />
        </mxCell>
        <mxCell id="wtEYaw61Segg5cu08wRg-98" value="Job_Title" style="ellipse;whiteSpace=wrap;html=1;align=center;direction=south;" parent="1" vertex="1">
          <mxGeometry x="-870" y="500" width="80" height="47.5" as="geometry" />
        </mxCell>
        <mxCell id="wtEYaw61Segg5cu08wRg-100" value="" style="endArrow=none;html=1;rounded=0;entryX=0;entryY=0;entryDx=0;entryDy=0;" parent="1" target="wtEYaw61Segg5cu08wRg-98" edge="1">
          <mxGeometry relative="1" as="geometry">
            <mxPoint x="-790" y="480" as="sourcePoint" />
            <mxPoint x="-770" y="580.5" as="targetPoint" />
            <Array as="points" />
          </mxGeometry>
        </mxCell>
        <mxCell id="wtEYaw61Segg5cu08wRg-101" value="" style="endArrow=none;html=1;rounded=0;entryX=0;entryY=0.5;entryDx=0;entryDy=0;exitX=0.25;exitY=1;exitDx=0;exitDy=0;" parent="1" source="_sHV91O5TXKS0O4c9-gF-12" target="wtEYaw61Segg5cu08wRg-96" edge="1">
          <mxGeometry relative="1" as="geometry">
            <mxPoint x="-760" y="540.5" as="sourcePoint" />
            <mxPoint x="-750" y="608.5" as="targetPoint" />
            <Array as="points" />
          </mxGeometry>
        </mxCell>
        <mxCell id="wtEYaw61Segg5cu08wRg-103" value="" style="endArrow=none;html=1;rounded=0;entryX=0.5;entryY=1;entryDx=0;entryDy=0;exitX=0.5;exitY=1;exitDx=0;exitDy=0;" parent="1" source="_sHV91O5TXKS0O4c9-gF-12" target="wtEYaw61Segg5cu08wRg-91" edge="1">
          <mxGeometry relative="1" as="geometry">
            <mxPoint x="-680" y="512.5" as="sourcePoint" />
            <mxPoint x="-670" y="580.5" as="targetPoint" />
            <Array as="points" />
          </mxGeometry>
        </mxCell>
        <mxCell id="wtEYaw61Segg5cu08wRg-104" style="edgeStyle=orthogonalEdgeStyle;rounded=0;orthogonalLoop=1;jettySize=auto;html=1;exitX=1;exitY=0.5;exitDx=0;exitDy=0;" parent="1" source="wtEYaw61Segg5cu08wRg-91" target="wtEYaw61Segg5cu08wRg-91" edge="1">
          <mxGeometry relative="1" as="geometry" />
        </mxCell>
        <mxCell id="wtEYaw61Segg5cu08wRg-105" style="edgeStyle=orthogonalEdgeStyle;rounded=0;orthogonalLoop=1;jettySize=auto;html=1;exitX=0.5;exitY=1;exitDx=0;exitDy=0;" parent="1" source="wtEYaw61Segg5cu08wRg-93" target="wtEYaw61Segg5cu08wRg-93" edge="1">
          <mxGeometry relative="1" as="geometry" />
        </mxCell>
        <mxCell id="wtEYaw61Segg5cu08wRg-106" value="Staff_Id" style="ellipse;whiteSpace=wrap;html=1;align=center;fontStyle=4;" parent="1" vertex="1">
          <mxGeometry x="-930" y="377.5" width="89.63" height="50" as="geometry" />
        </mxCell>
        <mxCell id="wtEYaw61Segg5cu08wRg-108" value="" style="endArrow=none;html=1;rounded=0;exitX=0;exitY=0.25;exitDx=0;exitDy=0;" parent="1" source="_sHV91O5TXKS0O4c9-gF-12" edge="1">
          <mxGeometry relative="1" as="geometry">
            <mxPoint x="-803.5" y="477.5" as="sourcePoint" />
            <mxPoint x="-860" y="420" as="targetPoint" />
            <Array as="points" />
          </mxGeometry>
        </mxCell>
        <mxCell id="wtEYaw61Segg5cu08wRg-110" value="Category_Id" style="ellipse;whiteSpace=wrap;html=1;align=center;fontStyle=4;" parent="1" vertex="1">
          <mxGeometry x="410" y="573.5" width="89.63" height="50" as="geometry" />
        </mxCell>
        <mxCell id="wtEYaw61Segg5cu08wRg-111" value="Caregory_Name" style="ellipse;whiteSpace=wrap;html=1;align=center;" parent="1" vertex="1">
          <mxGeometry x="650" y="580" width="110" height="50" as="geometry" />
        </mxCell>
        <mxCell id="wtEYaw61Segg5cu08wRg-112" value="" style="endArrow=none;html=1;rounded=0;entryX=0.5;entryY=1;entryDx=0;entryDy=0;exitX=0.5;exitY=0;exitDx=0;exitDy=0;" parent="1" source="wtEYaw61Segg5cu08wRg-110" target="_sHV91O5TXKS0O4c9-gF-5" edge="1">
          <mxGeometry relative="1" as="geometry">
            <mxPoint x="470" y="555" as="sourcePoint" />
            <mxPoint x="470" y="505" as="targetPoint" />
          </mxGeometry>
        </mxCell>
        <mxCell id="wtEYaw61Segg5cu08wRg-113" value="" style="endArrow=none;html=1;rounded=0;exitX=0.5;exitY=0;exitDx=0;exitDy=0;entryX=0.5;entryY=0;entryDx=0;entryDy=0;" parent="1" source="wtEYaw61Segg5cu08wRg-111" target="_sHV91O5TXKS0O4c9-gF-5" edge="1">
          <mxGeometry relative="1" as="geometry">
            <mxPoint x="618.33" y="623.5" as="sourcePoint" />
            <mxPoint x="580" y="550" as="targetPoint" />
          </mxGeometry>
        </mxCell>
        <mxCell id="wtEYaw61Segg5cu08wRg-115" value="Reservation_Date" style="ellipse;whiteSpace=wrap;html=1;align=center;" parent="1" vertex="1">
          <mxGeometry x="345" y="-50" width="105" height="50" as="geometry" />
        </mxCell>
        <mxCell id="wtEYaw61Segg5cu08wRg-116" value="Res_Status" style="ellipse;whiteSpace=wrap;html=1;align=center;" parent="1" vertex="1">
          <mxGeometry x="220" y="-25" width="100" height="50" as="geometry" />
        </mxCell>
        <mxCell id="wtEYaw61Segg5cu08wRg-118" value="Reservation_Id" style="ellipse;whiteSpace=wrap;html=1;align=center;fontStyle=4;" parent="1" vertex="1">
          <mxGeometry x="460.37" y="-25" width="89.63" height="50" as="geometry" />
        </mxCell>
        <mxCell id="wtEYaw61Segg5cu08wRg-120" value="" style="endArrow=none;html=1;rounded=0;exitX=1;exitY=1;exitDx=0;exitDy=0;entryX=0;entryY=0;entryDx=0;entryDy=0;" parent="1" source="wtEYaw61Segg5cu08wRg-116" target="_sHV91O5TXKS0O4c9-gF-7" edge="1">
          <mxGeometry relative="1" as="geometry">
            <mxPoint x="322" y="60" as="sourcePoint" />
            <mxPoint x="320" y="130" as="targetPoint" />
          </mxGeometry>
        </mxCell>
        <mxCell id="wtEYaw61Segg5cu08wRg-121" value="" style="endArrow=none;html=1;rounded=0;exitX=0.264;exitY=0.956;exitDx=0;exitDy=0;entryX=0.394;entryY=0.061;entryDx=0;entryDy=0;exitPerimeter=0;entryPerimeter=0;" parent="1" source="wtEYaw61Segg5cu08wRg-115" target="_sHV91O5TXKS0O4c9-gF-7" edge="1">
          <mxGeometry relative="1" as="geometry">
            <mxPoint x="392" as="sourcePoint" />
            <mxPoint x="390" y="70" as="targetPoint" />
          </mxGeometry>
        </mxCell>
        <mxCell id="wtEYaw61Segg5cu08wRg-122" value="" style="endArrow=none;html=1;rounded=0;exitX=0;exitY=0.5;exitDx=0;exitDy=0;entryX=1;entryY=0;entryDx=0;entryDy=0;" parent="1" source="wtEYaw61Segg5cu08wRg-118" target="_sHV91O5TXKS0O4c9-gF-7" edge="1">
          <mxGeometry relative="1" as="geometry">
            <mxPoint x="462.37" y="20" as="sourcePoint" />
            <mxPoint x="460.37" y="90" as="targetPoint" />
          </mxGeometry>
        </mxCell>
        <mxCell id="wtEYaw61Segg5cu08wRg-123" value="Payment_Amount" style="ellipse;whiteSpace=wrap;html=1;align=center;" parent="1" vertex="1">
          <mxGeometry x="-59.63" y="-320" width="120" height="50" as="geometry" />
        </mxCell>
        <mxCell id="wtEYaw61Segg5cu08wRg-124" value="Payment_Date" style="ellipse;whiteSpace=wrap;html=1;align=center;" parent="1" vertex="1">
          <mxGeometry x="-160" y="-290" width="100" height="50" as="geometry" />
        </mxCell>
        <mxCell id="wtEYaw61Segg5cu08wRg-125" value="Payment_Id" style="ellipse;whiteSpace=wrap;html=1;align=center;fontStyle=4;" parent="1" vertex="1">
          <mxGeometry x="80.37" y="-300" width="89.63" height="50" as="geometry" />
        </mxCell>
        <mxCell id="wtEYaw61Segg5cu08wRg-126" value="" style="endArrow=none;html=1;rounded=0;exitX=0;exitY=1;exitDx=0;exitDy=0;entryX=1;entryY=0;entryDx=0;entryDy=0;" parent="1" source="wtEYaw61Segg5cu08wRg-125" target="_sHV91O5TXKS0O4c9-gF-11" edge="1">
          <mxGeometry relative="1" as="geometry">
            <mxPoint x="120" y="-212.5" as="sourcePoint" />
            <mxPoint x="120" y="-160.5" as="targetPoint" />
          </mxGeometry>
        </mxCell>
        <mxCell id="wtEYaw61Segg5cu08wRg-127" value="" style="endArrow=none;html=1;rounded=0;exitX=0.5;exitY=1;exitDx=0;exitDy=0;entryX=0.5;entryY=0;entryDx=0;entryDy=0;" parent="1" source="wtEYaw61Segg5cu08wRg-123" target="_sHV91O5TXKS0O4c9-gF-11" edge="1">
          <mxGeometry relative="1" as="geometry">
            <mxPoint x="18.75" y="-242" as="sourcePoint" />
            <mxPoint x="18.75" y="-190" as="targetPoint" />
          </mxGeometry>
        </mxCell>
        <mxCell id="wtEYaw61Segg5cu08wRg-128" value="" style="endArrow=none;html=1;rounded=0;exitX=1;exitY=1;exitDx=0;exitDy=0;entryX=0;entryY=0;entryDx=0;entryDy=0;" parent="1" source="wtEYaw61Segg5cu08wRg-124" target="_sHV91O5TXKS0O4c9-gF-11" edge="1">
          <mxGeometry relative="1" as="geometry">
            <mxPoint x="-61.25" y="-224.5" as="sourcePoint" />
            <mxPoint x="-50" y="-220" as="targetPoint" />
          </mxGeometry>
        </mxCell>
        <mxCell id="wtEYaw61Segg5cu08wRg-129" value="1" style="resizable=0;html=1;whiteSpace=wrap;align=right;verticalAlign=bottom;" parent="1" connectable="0" vertex="1">
          <mxGeometry x="-750.0004851979222" y="417.50176394232517" as="geometry" />
        </mxCell>
        <mxCell id="wtEYaw61Segg5cu08wRg-130" value="N" style="resizable=0;html=1;whiteSpace=wrap;align=right;verticalAlign=bottom;" parent="1" connectable="0" vertex="1">
          <mxGeometry x="602.5" y="290" as="geometry" />
        </mxCell>
        <mxCell id="wtEYaw61Segg5cu08wRg-131" value="M" style="resizable=0;html=1;whiteSpace=wrap;align=right;verticalAlign=bottom;direction=south;" parent="1" connectable="0" vertex="1">
          <mxGeometry x="580" y="330" as="geometry" />
        </mxCell>
        <mxCell id="wtEYaw61Segg5cu08wRg-132" value="1" style="resizable=0;html=1;whiteSpace=wrap;align=right;verticalAlign=bottom;" parent="1" connectable="0" vertex="1">
          <mxGeometry x="570" y="489.78" as="geometry" />
        </mxCell>
        <mxCell id="wtEYaw61Segg5cu08wRg-133" value="1" style="resizable=0;html=1;whiteSpace=wrap;align=right;verticalAlign=bottom;" parent="1" connectable="0" vertex="1">
          <mxGeometry x="520" y="330" as="geometry" />
        </mxCell>
        <mxCell id="wtEYaw61Segg5cu08wRg-134" value="M" style="resizable=0;html=1;whiteSpace=wrap;align=right;verticalAlign=bottom;direction=south;" parent="1" connectable="0" vertex="1">
          <mxGeometry x="25" y="380" as="geometry" />
        </mxCell>
        <mxCell id="wtEYaw61Segg5cu08wRg-137" value="1" style="resizable=0;html=1;whiteSpace=wrap;align=right;verticalAlign=bottom;" parent="1" connectable="0" vertex="1">
          <mxGeometry x="460.37" y="280" as="geometry" />
        </mxCell>
        <mxCell id="wtEYaw61Segg5cu08wRg-138" value="1" style="resizable=0;html=1;whiteSpace=wrap;align=right;verticalAlign=bottom;direction=south;" parent="1" connectable="0" vertex="1">
          <mxGeometry x="-40" y="340" as="geometry">
            <mxPoint x="3" y="10" as="offset" />
          </mxGeometry>
        </mxCell>
        <mxCell id="wtEYaw61Segg5cu08wRg-140" value="1" style="resizable=0;html=1;whiteSpace=wrap;align=right;verticalAlign=bottom;" parent="1" connectable="0" vertex="1">
          <mxGeometry x="-210" y="90" as="geometry" />
        </mxCell>
        <mxCell id="wtEYaw61Segg5cu08wRg-141" value="M" style="resizable=0;html=1;whiteSpace=wrap;align=right;verticalAlign=bottom;direction=south;" parent="1" connectable="0" vertex="1">
          <mxGeometry x="377.5" y="100" as="geometry" />
        </mxCell>
        <mxCell id="wtEYaw61Segg5cu08wRg-143" value="M" style="resizable=0;html=1;whiteSpace=wrap;align=right;verticalAlign=bottom;direction=south;" parent="1" connectable="0" vertex="1">
          <mxGeometry x="310" y="60" as="geometry" />
        </mxCell>
        <mxCell id="wtEYaw61Segg5cu08wRg-144" value="1" style="resizable=0;html=1;whiteSpace=wrap;align=right;verticalAlign=bottom;" parent="1" connectable="0" vertex="1">
          <mxGeometry x="-150" y="60" as="geometry" />
        </mxCell>
        <mxCell id="wtEYaw61Segg5cu08wRg-146" value="1" style="resizable=0;html=1;whiteSpace=wrap;align=right;verticalAlign=bottom;direction=south;" parent="1" connectable="0" vertex="1">
          <mxGeometry x="70" y="240" as="geometry" />
        </mxCell>
        <mxCell id="wtEYaw61Segg5cu08wRg-147" value="1" style="resizable=0;html=1;whiteSpace=wrap;align=right;verticalAlign=bottom;" parent="1" connectable="0" vertex="1">
          <mxGeometry x="-140" y="25" as="geometry" />
        </mxCell>
        <mxCell id="wtEYaw61Segg5cu08wRg-150" value="M" style="resizable=0;html=1;whiteSpace=wrap;align=right;verticalAlign=bottom;direction=south;" parent="1" connectable="0" vertex="1">
          <mxGeometry x="20" y="-160" as="geometry" />
        </mxCell>
        <mxCell id="wtEYaw61Segg5cu08wRg-151" value="M" style="resizable=0;html=1;whiteSpace=wrap;align=right;verticalAlign=bottom;direction=south;" parent="1" connectable="0" vertex="1">
          <mxGeometry x="-120" y="360" as="geometry">
            <mxPoint x="3" y="10" as="offset" />
          </mxGeometry>
        </mxCell>
        <mxCell id="wtEYaw61Segg5cu08wRg-152" value="M" style="resizable=0;html=1;whiteSpace=wrap;align=right;verticalAlign=bottom;direction=south;" parent="1" connectable="0" vertex="1">
          <mxGeometry x="-310" y="80" as="geometry">
            <mxPoint x="3" y="10" as="offset" />
          </mxGeometry>
        </mxCell>
        <mxCell id="wtEYaw61Segg5cu08wRg-155" value="" style="shape=link;html=1;rounded=0;entryX=0.5;entryY=0;entryDx=0;entryDy=0;exitX=0.796;exitY=1;exitDx=0;exitDy=0;exitPerimeter=0;" parent="1" source="_sHV91O5TXKS0O4c9-gF-1" target="_sHV91O5TXKS0O4c9-gF-20" edge="1">
          <mxGeometry relative="1" as="geometry">
            <mxPoint x="555" y="320" as="sourcePoint" />
            <mxPoint x="780" y="380" as="targetPoint" />
          </mxGeometry>
        </mxCell>
        <mxCell id="wtEYaw61Segg5cu08wRg-157" value="" style="shape=link;html=1;rounded=0;entryX=0;entryY=0.5;entryDx=0;entryDy=0;edgeStyle=orthogonalEdgeStyle;" parent="1" target="_sHV91O5TXKS0O4c9-gF-9" edge="1">
          <mxGeometry relative="1" as="geometry">
            <mxPoint x="-330" y="460" as="sourcePoint" />
            <mxPoint x="-140" y="457.5" as="targetPoint" />
          </mxGeometry>
        </mxCell>
        <mxCell id="wtEYaw61Segg5cu08wRg-158" value="" style="shape=link;html=1;rounded=0;exitX=0.5;exitY=1;exitDx=0;exitDy=0;entryX=0.5;entryY=0;entryDx=0;entryDy=0;" parent="1" source="_sHV91O5TXKS0O4c9-gF-11" target="_sHV91O5TXKS0O4c9-gF-33" edge="1">
          <mxGeometry relative="1" as="geometry">
            <mxPoint y="-147.5" as="sourcePoint" />
            <mxPoint x="110" y="-147.5" as="targetPoint" />
          </mxGeometry>
        </mxCell>
        <mxCell id="yeAEujPGPwhohnPnJKlg-5" value="" style="endArrow=none;dashed=1;html=1;rounded=0;" parent="1" edge="1">
          <mxGeometry width="50" height="50" relative="1" as="geometry">
            <mxPoint x="192.5" y="149.63" as="sourcePoint" />
            <mxPoint x="247.5" y="149.63" as="targetPoint" />
          </mxGeometry>
        </mxCell>
        <mxCell id="yeAEujPGPwhohnPnJKlg-7" value="M" style="resizable=0;html=1;whiteSpace=wrap;align=right;verticalAlign=bottom;direction=south;" parent="1" connectable="0" vertex="1">
          <mxGeometry x="-100" y="330" as="geometry">
            <mxPoint x="3" y="10" as="offset" />
          </mxGeometry>
        </mxCell>
        <mxCell id="yeAEujPGPwhohnPnJKlg-8" value="take" style="shape=rhombus;perimeter=rhombusPerimeter;whiteSpace=wrap;html=1;align=center;" parent="1" vertex="1">
          <mxGeometry x="-255" y="140" width="95" height="60" as="geometry" />
        </mxCell>
        <mxCell id="yeAEujPGPwhohnPnJKlg-9" value="" style="endArrow=none;html=1;rounded=0;exitX=0.5;exitY=0;exitDx=0;exitDy=0;entryX=0.5;entryY=1;entryDx=0;entryDy=0;edgeStyle=orthogonalEdgeStyle;" parent="1" source="yeAEujPGPwhohnPnJKlg-8" target="_sHV91O5TXKS0O4c9-gF-8" edge="1">
          <mxGeometry relative="1" as="geometry">
            <mxPoint x="-220" y="380" as="sourcePoint" />
            <mxPoint x="-290" y="210" as="targetPoint" />
          </mxGeometry>
        </mxCell>
        <mxCell id="yeAEujPGPwhohnPnJKlg-10" value="" style="endArrow=none;html=1;rounded=0;exitX=1;exitY=0.5;exitDx=0;exitDy=0;entryX=0.5;entryY=1;entryDx=0;entryDy=0;" parent="1" source="_sHV91O5TXKS0O4c9-gF-58" target="wtEYaw61Segg5cu08wRg-82" edge="1">
          <mxGeometry width="50" height="50" relative="1" as="geometry">
            <mxPoint x="150" y="197.5" as="sourcePoint" />
            <mxPoint x="165" y="162.5" as="targetPoint" />
          </mxGeometry>
        </mxCell>
        <mxCell id="yeAEujPGPwhohnPnJKlg-11" value="" style="endArrow=none;html=1;rounded=0;entryX=0.5;entryY=1;entryDx=0;entryDy=0;exitX=0.573;exitY=-0.043;exitDx=0;exitDy=0;edgeStyle=orthogonalEdgeStyle;exitPerimeter=0;" parent="1" source="_sHV91O5TXKS0O4c9-gF-9" target="_sHV91O5TXKS0O4c9-gF-57" edge="1">
          <mxGeometry relative="1" as="geometry">
            <mxPoint x="-30" y="290" as="sourcePoint" />
            <mxPoint x="-70" y="300" as="targetPoint" />
          </mxGeometry>
        </mxCell>
        <mxCell id="yeAEujPGPwhohnPnJKlg-12" value="" style="shape=link;html=1;rounded=0;entryX=0.5;entryY=1;entryDx=0;entryDy=0;edgeStyle=orthogonalEdgeStyle;exitX=1;exitY=0.5;exitDx=0;exitDy=0;" parent="1" source="_sHV91O5TXKS0O4c9-gF-57" target="_sHV91O5TXKS0O4c9-gF-58" edge="1">
          <mxGeometry relative="1" as="geometry">
            <mxPoint x="-30.25999999999999" y="278.49" as="sourcePoint" />
            <mxPoint x="189.74" y="188.49" as="targetPoint" />
          </mxGeometry>
        </mxCell>
        <mxCell id="yeAEujPGPwhohnPnJKlg-13" value="" style="shape=link;html=1;rounded=0;exitX=0.5;exitY=1;exitDx=0;exitDy=0;entryX=0;entryY=0;entryDx=0;entryDy=0;" parent="1" source="yeAEujPGPwhohnPnJKlg-8" target="_sHV91O5TXKS0O4c9-gF-9" edge="1">
          <mxGeometry relative="1" as="geometry">
            <mxPoint x="-230" y="240" as="sourcePoint" />
            <mxPoint x="-100" y="360" as="targetPoint" />
          </mxGeometry>
        </mxCell>
        <mxCell id="yeAEujPGPwhohnPnJKlg-14" value="" style="shape=link;html=1;rounded=0;exitX=0.5;exitY=1;exitDx=0;exitDy=0;" parent="1" source="_sHV91O5TXKS0O4c9-gF-7" target="_sHV91O5TXKS0O4c9-gF-25" edge="1">
          <mxGeometry relative="1" as="geometry">
            <mxPoint x="377" y="125" as="sourcePoint" />
            <mxPoint x="474" y="275" as="targetPoint" />
          </mxGeometry>
        </mxCell>
        <mxCell id="yeAEujPGPwhohnPnJKlg-15" value="" style="shape=link;html=1;rounded=0;exitX=1;exitY=0.5;exitDx=0;exitDy=0;entryX=0;entryY=0.5;entryDx=0;entryDy=0;" parent="1" source="_sHV91O5TXKS0O4c9-gF-32" target="_sHV91O5TXKS0O4c9-gF-7" edge="1">
          <mxGeometry relative="1" as="geometry">
            <mxPoint x="233" y="30" as="sourcePoint" />
            <mxPoint x="330" y="180" as="targetPoint" />
          </mxGeometry>
        </mxCell>
        <mxCell id="yeAEujPGPwhohnPnJKlg-16" value="" style="shape=link;html=1;rounded=0;exitX=1;exitY=0.75;exitDx=0;exitDy=0;entryX=0;entryY=0.5;entryDx=0;entryDy=0;" parent="1" edge="1">
          <mxGeometry relative="1" as="geometry">
            <mxPoint x="-8" y="380" as="sourcePoint" />
            <mxPoint x="382" y="380" as="targetPoint" />
          </mxGeometry>
        </mxCell>
        <mxCell id="jMWWmtlnxYgN5FGwb4IN-4" value="" style="endArrow=none;html=1;rounded=0;entryX=0.5;entryY=1;entryDx=0;entryDy=0;exitX=0;exitY=0.5;exitDx=0;exitDy=0;" parent="1" source="wtEYaw61Segg5cu08wRg-40" target="wtEYaw61Segg5cu08wRg-39" edge="1">
          <mxGeometry width="50" height="50" relative="1" as="geometry">
            <mxPoint x="-207" y="-52" as="sourcePoint" />
            <mxPoint x="-282" y="-240" as="targetPoint" />
          </mxGeometry>
        </mxCell>
      </root>
    </mxGraphModel>
  </diagram>
</mxfile>
